HIERARCHY
ROOT pelvis
{
	OFFSET 0.000000 0.000000 0.892315
	CHANNELS 6 Xposition Yposition Zposition Xrotation Yrotation Zrotation
	JOINT spine
	{
		OFFSET 0.000000 0.000000 0.000000
		CHANNELS 6 Xposition Yposition Zposition Xrotation Yrotation Zrotation
		JOINT spine.001
		{
			OFFSET 0.000000 -0.015374 0.293356
			CHANNELS 3 Xrotation Yrotation Zrotation
			JOINT neck
			{
				OFFSET 0.000000 0.035800 0.291569
				CHANNELS 6 Xposition Yposition Zposition Xrotation Yrotation Zrotation
				JOINT face
				{
					OFFSET 0.000000 0.003868 0.221603
					CHANNELS 6 Xposition Yposition Zposition Xrotation Yrotation Zrotation
					End Site
					{
						OFFSET 0.000000 -0.028344 -0.009001
					}
				}
			}
			JOINT shoulder.L
			{
				OFFSET 0.000000 0.035800 0.291569
				CHANNELS 6 Xposition Yposition Zposition Yrotation Xrotation Zrotation
				JOINT upper_arm.L
				{
					OFFSET 0.189779 0.000000 0.000000
					CHANNELS 6 Xposition Yposition Zposition Xrotation Yrotation Zrotation
					JOINT forearm.L
					{
						OFFSET 0.316302 0.000133 0.001101
						CHANNELS 6 Xposition Yposition Zposition Xrotation Yrotation Zrotation
						End Site
						{
							OFFSET 0.263547 -0.004478 -0.001515
						}
					}
				}
			}
			JOINT shoulder.R
			{
				OFFSET 0.000000 0.035800 0.291569
				CHANNELS 6 Xposition Yposition Zposition Yrotation Xrotation Zrotation
				JOINT upper_arm.R
				{
					OFFSET -0.189779 0.000000 0.000000
					CHANNELS 6 Xposition Yposition Zposition Xrotation Yrotation Zrotation
					JOINT forearm.R
					{
						OFFSET -0.310039 0.000133 0.001101
						CHANNELS 6 Xposition Yposition Zposition Xrotation Yrotation Zrotation
						End Site
						{
							OFFSET -0.266022 -0.004522 -0.001515
						}
					}
				}
			}
		}
	}
	JOINT pelvis.L
	{
		OFFSET 0.000000 0.000000 0.000000
		CHANNELS 6 Xposition Yposition Zposition Yrotation Xrotation Zrotation
		End Site
		{
			OFFSET 0.114049 0.000000 0.000000
		}
	}
	JOINT pelvis.R
	{
		OFFSET 0.000000 0.000000 0.000000
		CHANNELS 6 Xposition Yposition Zposition Yrotation Xrotation Zrotation
		End Site
		{
			OFFSET -0.114049 0.000000 0.000000
		}
	}
	JOINT thigh.L
	{
		OFFSET 0.114049 0.000000 0.000000
		CHANNELS 6 Xposition Yposition Zposition Xrotation Yrotation Zrotation
		JOINT shin.L
		{
			OFFSET 0.022107 0.000000 -0.421827
			CHANNELS 6 Xposition Yposition Zposition Xrotation Yrotation Zrotation
			JOINT foot.L
			{
				OFFSET 0.020520 0.000000 -0.391546
				CHANNELS 3 Xrotation Yrotation Zrotation
				End Site
				{
					OFFSET 0.017548 -0.178926 -0.075134
				}
			}
			JOINT heel.02.L
			{
				OFFSET 0.020520 0.000000 -0.391546
				CHANNELS 3 Xrotation Yrotation Zrotation
				End Site
				{
					OFFSET 0.098963 0.039582 -0.072746
				}
			}
		}
	}
	JOINT thigh.R
	{
		OFFSET -0.114049 0.000000 0.000000
		CHANNELS 6 Xposition Yposition Zposition Xrotation Yrotation Zrotation
		JOINT shin.R
		{
			OFFSET -0.022509 0.000000 -0.429490
			CHANNELS 6 Xposition Yposition Zposition Xrotation Yrotation Zrotation
			JOINT foot.R
			{
				OFFSET -0.020231 0.000000 -0.386038
				CHANNELS 3 Xrotation Yrotation Zrotation
				End Site
				{
					OFFSET -0.017830 -0.181801 -0.076341
				}
			}
			JOINT heel.02.R
			{
				OFFSET -0.020231 0.000000 -0.386038
				CHANNELS 3 Xrotation Yrotation Zrotation
				End Site
				{
					OFFSET -0.096127 0.039582 -0.070734
				}
			}
		}
	}
}
MOTION
Frames: 4
Frame Time: 0.041667
0.013565 -0.055180 0.873016 0.000000 0.000000 -5.082649 0.000000 -0.000000 0.000000 -6.035470 1.185112 0.124936 9.986269 0.440058 3.586506 -0.000000 0.035800 0.291569 10.100414 0.904279 -0.139683 -0.000000 0.003868 0.221603 2.707942 -0.000000 -0.000001 -0.000000 0.035800 0.291569 0.048653 0.000001 -0.005973 0.189779 -0.000000 0.000000 7.837130 82.003149 -9.049622 0.316302 0.000133 0.001101 1.179287 8.236164 -15.540564 -0.000000 0.035800 0.291569 0.100370 0.000010 -0.012321 -0.189779 0.000000 -0.000000 20.033956 -79.994438 23.796978 -0.310039 0.000133 0.001101 1.110562 -8.280988 14.418586 0.000000 -0.000000 0.000000 2.400035 -0.000001 0.000055 0.000000 -0.000000 0.000000 2.400007 -0.000000 0.000000 0.113949 -0.000000 -0.004776 7.890384 3.351358 0.183258 0.022107 -0.000000 -0.421827 1.798056 -1.945824 0.124668 -10.780428 0.547295 -3.086150 -11.760052 43.810070 33.665470 -0.113949 -0.000000 0.004776 7.575065 0.799859 -0.450357 -0.022509 0.000000 -0.429490 -1.469830 -2.693657 0.042527 -8.436142 -0.663561 2.984331 -8.478702 -41.148201 -34.009663 
0.014159 -0.054806 0.870385 -0.000000 0.000000 -4.551014 0.000000 0.000000 -0.000000 -6.153341 1.133730 0.120698 9.983691 0.480327 3.915255 -0.000000 0.035800 0.291569 10.542666 0.545739 -1.855375 0.000000 0.003868 0.221603 2.503680 -0.000000 0.000002 -0.000000 0.035800 0.291569 -0.033569 0.000000 0.004144 0.189779 -0.000000 -0.000000 10.434541 82.072004 -12.014140 0.316302 0.000133 0.001101 1.142099 8.186929 -15.101589 -0.000000 0.035800 0.291569 0.018114 -0.000000 -0.002180 -0.189779 0.000000 -0.000000 18.162639 -80.056702 21.571607 -0.310039 0.000133 0.001101 1.060347 -8.015016 14.239735 0.000000 0.000000 0.000000 2.273027 0.000001 -0.000050 0.000000 0.000000 0.000000 2.273027 -0.000000 0.000000 0.113959 0.000000 -0.004523 7.759002 3.272603 0.185545 0.022107 -0.000000 -0.421827 1.980456 -1.857854 0.135803 -11.648415 0.677609 -3.441978 -11.012139 43.396177 33.878199 -0.113959 -0.000000 0.004523 7.768069 0.793810 -0.461457 -0.022509 -0.000000 -0.429490 -1.346990 -2.272370 0.043927 -8.627934 -0.850166 3.377446 -8.594174 -41.085791 -33.664626 
0.014491 -0.054373 0.868467 -0.000000 0.000000 -4.110641 -0.000000 0.000000 0.000000 -6.219250 1.106860 0.118481 9.981916 0.503358 4.103068 -0.000000 0.035800 0.291569 10.829383 0.293269 -2.940580 -0.000000 0.003868 0.221603 2.383259 -0.000000 0.000001 -0.000000 0.035800 0.291569 -0.110337 0.000012 0.013565 0.189779 0.000000 -0.000000 12.987810 82.084612 -14.931852 0.316302 0.000133 0.001101 1.110086 7.982098 -15.084234 -0.000000 0.035800 0.291569 -0.058657 0.000002 0.007199 -0.189779 -0.000000 0.000000 17.034664 -80.085819 20.233088 -0.310039 0.000133 0.001101 0.998817 -7.677767 14.027266 0.000000 0.000000 0.000000 2.138448 0.000001 -0.000058 0.000000 0.000000 0.000000 2.138449 -0.000000 0.000000 0.113969 -0.000000 -0.004256 7.644689 3.171511 0.189563 0.022107 0.000000 -0.421827 2.140805 -1.743943 0.144678 -12.228281 0.798320 -3.734401 -10.437925 43.044511 33.954339 -0.113969 0.000000 0.004256 7.884968 0.768628 -0.466693 -0.022509 0.000000 -0.429490 -1.207233 -1.967289 0.042580 -8.817893 -0.946569 3.591020 -8.777318 -41.106831 -33.408627 
0.014484 -0.053927 0.867384 0.000000 0.000000 -3.770708 0.000000 -0.000000 -0.000000 -6.239111 1.105808 0.118561 9.981701 0.507424 4.136448 0.000000 0.035800 0.291570 10.975646 0.173508 -3.400999 0.000000 0.003868 0.221603 2.363352 0.000000 -0.000002 0.000000 0.035800 0.291569 -0.188222 0.000038 0.023062 0.189779 0.000000 -0.000000 15.351912 82.038734 -17.645621 0.316302 0.000133 0.001101 1.068321 7.526699 -15.520152 0.000000 0.035800 0.291569 -0.136502 0.000019 0.016744 -0.189779 -0.000000 -0.000000 16.656620 -80.062057 19.795831 -0.310039 0.000133 0.001101 0.926540 -7.246774 13.831513 0.000000 -0.000000 0.000000 2.016405 0.000000 0.000019 0.000000 -0.000000 0.000000 2.016406 -0.000000 -0.000000 0.113978 0.000000 -0.004013 7.543478 3.045623 0.195351 0.022107 -0.000000 -0.421827 2.285475 -1.598758 0.151575 -12.482651 0.909263 -3.965558 -10.054998 42.768018 33.898645 -0.113978 0.000000 0.004013 7.912179 0.713186 -0.464488 -0.022509 0.000000 -0.429490 -1.038553 -1.777437 0.038349 -8.991518 -0.943161 3.606576 -9.035101 -41.236878 -33.292210 
